<?xml version="1.0" encoding="utf-8"?>
<!-- Generator: Adobe Illustrator 22.0.1, SVG Export Plug-In . SVG Version: 6.00 Build 0)  -->
<svg version="1.1" id="Layer_1" xmlns="http://www.w3.org/2000/svg" xmlns:xlink="http://www.w3.org/1999/xlink" x="0px" y="0px"
	 viewBox="0 0 163.1 67" style="enable-background:new 0 0 163.1 67;" xml:space="preserve">
<g>
	<path d="M54.4,62.3c0-0.5,0.5-0.7,1.4-0.7c0.9,0,1.5,0.3,1.6,1l1.1-0.2c-0.2-1.1-1.3-1.7-2.7-1.7c-1.5,0-2.6,0.6-2.6,1.7
		c0,2.1,4.3,1.5,4.3,2.9c0,0.5-0.6,0.9-1.5,0.9c-0.9,0-1.6-0.3-1.8-1.1L53,65.1c0.2,1.3,1.5,1.9,3,1.9c1.7,0,2.7-0.7,2.7-1.8
		C58.7,63,54.4,63.6,54.4,62.3z"/>
	<path d="M64.6,65l0-3.3h1.8v-0.9h-1.8v-1.4h-0.8l-0.4,1.4h-1v0.9h1l0,3.6c0,0.9,0.7,1.5,1.8,1.5h1.2V66h-0.9
		C65,66,64.6,65.6,64.6,65z"/>
	<path d="M73.6,60.7c-2.1,0-3.4,1.2-3.4,3.1c0,1.9,1.3,3.2,3.4,3.2c2.1,0,3.3-1.2,3.3-3.2C77,61.9,75.7,60.7,73.6,60.7z M73.6,66.1
		c-1.3,0-2.2-0.9-2.2-2.2s0.8-2.2,2.2-2.2c1.3,0,2.1,0.9,2.1,2.2S74.9,66.1,73.6,66.1z"/>
	<path d="M82.6,61.9v-1h-1.1v6h1.2v-3.1c0-1.3,0.8-2.1,2.2-2.1h0.3v-1h-0.3C83.8,60.7,83,61.1,82.6,61.9z"/>
	<path d="M91.6,60.7c-2,0-3.3,1.2-3.3,3.1c0,2,1.3,3.2,3.4,3.2c1.5,0,2.7-0.6,3-1.8L93.6,65c-0.2,0.7-0.9,1.1-1.8,1.1
		c-1.3,0-2.1-0.8-2.3-2h5.3C94.9,61.9,93.6,60.7,91.6,60.7z M89.6,63.3c0.2-1,0.9-1.7,2-1.7c1.1,0,1.8,0.6,2,1.7H89.6z"/>
	<path d="M162.2,35.6c-12.4,3.1-18.7,4.5-28.9,6.1V0H18.7v27.1c-3,2.2-6,4.5-8.8,7C5.8,37.8,1.8,41.7,0,47.4c-0.3,0.9,1,1.3,1.3,0.4
		C3.1,42,7.6,38,11.8,34.4c2.2-1.9,4.5-3.7,6.9-5.5v35.7h17.7v-1.3H20V28c1.3-0.9,2.5-1.8,3.8-2.6c8.6-5.5,17.8-9.7,27.3-12.5
		c2.3-0.6,4.5-1.2,6.8-1.7c0.8-0.2,1.7-0.4,2.5-0.6c0.7-0.2,1.6-0.4,2.3-0.3c0.7,0.1,1.7,0.5,2,1.1c0.7,1.2-1.6,3.9-2,4.4
		c-0.4,0.6-0.8,1.2-1.3,1.8c-0.8,1-1.6,2.1-2.4,3.1c-1.6,2-3.3,4.1-4.9,6c-0.3,0.4-0.7,0.8-1,1.1c-2.8,1.9-5.6,4-8.3,6.1
		c-3.2,2.6-6.8,5-9.8,7.9c-2.1,2-2,4.3-2.4,7.1c-0.1,0.8,0.6,1.2,1.1,0.7C40.9,43.2,47.7,36.4,54,29c0.9-0.6,1.8-1.2,2.8-1.8
		c2.8-1.7,5.6-3.3,8.6-4.5c1.5-0.6,2.9-1.1,4.5-1.4c1.1-0.3,2.3-0.5,3.4-0.5c1,0,2.6-0.1,3,1.1c0.2,0.6,0,1.5-0.3,2.1
		c-0.3,0.6-0.6,1.1-1,1.6c-0.8,1-2,1.8-3,2.6c-0.2,0.2-0.4,0.4-0.7,0.5c-2.7,2.2-5.7,3.8-8.8,5.1c-0.8,0.3-0.5,1.8,0.4,1.4
		c4.3-1.7,9.6-2.6,14-0.9c0.8,0.3,1.6,0.9,1.8,1.7c0.1,0.6-0.1,1.2-0.5,1.8c-1.4,2-3.8,2.7-5.9,3.5c-1.8,0.7-3.6,1.3-5.5,1.9
		c-0.7,0.2-0.6,1.5,0.2,1.5c6.4-0.5,12.9-1.2,19.2-2.5c0.6-0.1,1.3-0.2,2.1-0.4c0.8,6.1,12.1,0.9,14.5-0.4c0.2-0.1,0.4-0.2,0.5-0.3
		c-2.8,8.1,8.1,4.8,11.8,4.4c6.5-0.7,11.9-1.4,16.9-2.2v19.8h-20.3v1.3h21.6V43.2c9.2-1.5,17.4-3.2,29.2-6.2
		C163.4,36.8,163.1,35.4,162.2,35.6z M34.3,47.3c0.3-1.8,0.7-3.3,2.3-4.8c2.2-2.1,4.7-3.8,7-5.7c1.8-1.4,3.6-2.9,5.4-4.2
		C44.3,37.8,39.4,42.6,34.3,47.3z M125.4,42.9c-3.9,0.5-7.8,1-11.7,1.5c-3,0.3-11.3,2.4-8.5-3.8c0.1-0.1,0.1-0.3,0.2-0.4
		c3.6-2.2,7-4.9,9.9-8.1c1.5-1.6,3.4-3.5,4.2-5.6c0.7-1.8,0.2-3.4-0.2-5.2c-0.1-0.6-0.8-0.7-1.1-0.3c-4.9,5.4-10.9,11.2-14,18.3
		c-3.8,2.5-8.9,5.3-12.8,4c-0.9-0.3-1.4-0.8-1.5-1.5c3.3-0.6,7.3-1.8,8.3-4.5c1-2.7-2.4-3.3-4.1-2.8c-2.1,0.6-5.1,3.2-5.7,5.9
		c-4.7,1.1-9.6,1.9-14.4,2.4c2.9-1.2,8.1-4.2,5.7-8.1c-0.7-1.2-2.1-1.8-3.5-2.1c-2.4-0.4-5-0.5-7.4-0.2c1.4-0.9,2.8-1.9,4.1-3
		c1.8-1.6,5-3.8,4.8-6.8c-0.5-5.7-9.3-2.1-11.9-1.2c-3.1,1-6,2.4-8.8,4.1c1.1-1.3,2.1-2.6,3.2-3.9c1.7-2.1,7.4-7.3,6.4-10.7
		c-1.2-3.9-8-1.2-10.2-0.8C45,12.6,33.9,17.3,23.7,23.7c-1.3,0.8-2.5,1.6-3.7,2.5V1.3h112v40.6C130,42.2,127.8,42.5,125.4,42.9z
		 M118.3,22.9c0.3,2.1-0.1,3.4-1.6,5.4c-0.8,1.1-1.7,2.1-2.6,3c-2.2,2.3-4.7,4.4-7.3,6.1C109.8,32,114.2,27.4,118.3,22.9z
		 M90.2,39.9c0.6-1.4,2-2.9,3.1-3.4c0.5-0.3,2.6-1.3,3-0.7c0.5,0.7-0.9,2.1-1.3,2.4C93.7,39.3,91.7,39.6,90.2,39.9
		C90.2,39.9,90.2,39.9,90.2,39.9z"/>
</g>
</svg>
